<svg width="73" height="98" fill='white' viewBox="0 0 73 98" xmlns="http://www.w3.org/2000/svg">
<path opacity="0.96" d="M61.0993 72.6687L11.0647 52.4568C9.62952 51.8771 8.71619 50.4551 8.78585 48.9088L9.57461 31.3993C9.71551 28.2715 13.4654 26.7579 15.7306 28.9194C21.1093 34.0518 29.4828 42.0488 37.5791 49.8091C49.8642 61.583 61.5124 72.8119 61.0993 72.6687Z" />
<path opacity="0.96" d="M69.5014 70.9535L51.749 19.9938C51.2398 18.5321 51.7081 16.9082 52.9173 15.942L66.6095 5.00266C69.0556 3.04835 72.6655 4.85068 72.5315 7.97875C71.7313 26.6612 69.7742 71.6256 69.5014 70.9535Z" />
<path opacity="0.96" d="M65.3569 90.113L37.4673 96.8043C35.9622 97.1654 34.3931 96.5379 33.5521 95.2385L30.8613 91.0809C29.1601 88.4523 31.3328 85.043 34.4318 85.489C45.8936 87.1385 65.7021 90.0111 65.3569 90.113Z" />
</svg>
