<svg width="107" height="112" fill="#FF3C78" viewBox="0 0 107 112"  xmlns="http://www.w3.org/2000/svg">
<path opacity="0.9" d="M37.4386 104.376C38.9662 103.653 40.7936 104.302 41.5189 105.83C42.2442 107.358 41.5955 109.187 40.0662 109.913C38.538 110.638 36.71 109.988 35.9847 108.46C35.2594 106.931 35.9103 105.102 37.4386 104.376Z" />
<path opacity="0.9" d="M28.813 86.1363C30.3423 85.4103 32.1691 86.061 32.8951 87.5903C33.6205 89.1185 32.9692 90.947 31.4405 91.6713C29.9124 92.3967 28.0861 91.7472 27.3601 90.2179C26.6347 88.6897 27.2848 86.8618 28.813 86.1363Z" />
<path opacity="0.9" d="M20.0161 67.8953C21.5454 67.1694 23.3722 67.8201 24.0976 69.3482C24.8236 70.8775 24.1729 72.7043 22.6436 73.4303C21.1155 74.1558 19.2886 73.5051 18.5632 71.9769C17.8372 70.4476 18.4879 68.6208 20.0161 67.8953Z" />
<path opacity="0.9" d="M2.76806 31.4561C4.29561 30.7323 6.12304 31.3813 6.84902 32.9106C7.57447 34.4388 6.92431 36.2668 5.39562 36.9911C3.86861 37.716 2.04004 37.0675 1.31405 35.5382C0.588607 34.01 1.23991 32.1815 2.76806 31.4561Z" />
<path opacity="0.9" d="M11.3903 49.6552C12.9213 48.9298 14.7459 49.5787 15.4731 51.1075C16.1974 52.6362 15.5472 54.4642 14.0179 55.1901C12.4898 55.9156 10.6629 55.2649 9.93748 53.7367C9.21149 52.2074 9.86219 50.3806 11.3903 49.6552Z" />
<path opacity="0.9" d="M53.3067 96.8307C54.836 96.1047 56.6623 96.7542 57.3888 98.2847C58.1142 99.8128 57.4635 101.64 55.9342 102.366C54.4061 103.091 52.5798 102.442 51.8538 100.912C51.1278 99.3829 51.7785 97.5561 53.3067 96.8307Z" />
<path opacity="0.9" d="M44.6822 78.6329C46.2115 77.9069 48.0378 78.5565 48.7638 80.0858C49.4898 81.6151 48.8391 83.4419 47.3098 84.1679C45.7816 84.8933 43.9548 84.2426 43.2294 82.7145C42.5034 81.1852 43.1541 79.3583 44.6822 78.6329Z" />
<path opacity="0.9" d="M35.8851 60.3922C37.4132 59.6667 39.2407 60.3157 39.9666 61.845C40.6921 63.3732 40.0408 65.2017 38.5126 65.9272C36.9851 66.6509 35.1577 66.0019 34.4317 64.4726C33.7062 62.9444 34.3575 61.1159 35.8851 60.3922Z" />
<path opacity="0.9" d="M27.2606 42.1512C28.7899 41.4252 30.6168 42.0759 31.3427 43.6052C32.0682 45.1334 31.4169 46.9619 29.8882 47.6862C28.36 48.4116 26.5337 47.7621 25.8078 46.2328C25.0823 44.7046 25.7325 42.8767 27.2606 42.1512Z" />
<path opacity="0.9" d="M18.6361 23.9102C20.1654 23.1843 21.9916 23.8338 22.7182 25.3643C23.4436 26.8924 22.7929 28.7192 21.2636 29.4452C19.7355 30.1707 17.9092 29.5211 17.1832 27.9918C16.4577 26.4637 17.1079 24.6357 18.6361 23.9102Z" />
<path opacity="0.9" d="M69.1758 89.3275C70.7051 88.6015 72.5314 89.251 73.2574 90.7803C73.9828 92.3085 73.3327 94.1365 71.8034 94.8625C70.2752 95.5879 68.4484 94.9372 67.723 93.409C66.997 91.8798 67.6483 90.0512 69.1758 89.3275Z" />
<path opacity="0.9" d="M60.5515 71.087C62.0817 70.363 63.907 71.0128 64.6339 72.5403C65.3596 74.0683 64.7086 75.8969 63.1801 76.6215C61.6521 77.3472 59.824 76.6974 59.0994 75.1689C58.3725 73.6414 59.0235 71.8128 60.5515 71.087Z" />
<path opacity="0.9" d="M51.7531 52.8461C53.2824 52.1201 55.1092 52.7708 55.8363 54.2996C56.5606 55.8282 55.9111 57.6545 54.3806 58.3811C52.8536 59.106 51.0262 58.457 50.3019 56.9283C49.5748 55.3995 50.2249 53.5715 51.7531 52.8461Z" />
<path opacity="0.9" d="M43.1296 34.6048C44.6589 33.8788 46.4852 34.5284 47.2118 36.0588C47.9367 37.5858 47.2865 39.4138 45.7572 40.1398C44.2291 40.8652 42.4022 40.2145 41.6768 38.6864C40.9508 37.1571 41.6015 35.3303 43.1296 34.6048Z" />
<path opacity="0.9" d="M34.5062 16.3631C36.0338 15.6394 37.8612 16.2886 38.5865 17.8168C39.3118 19.3451 38.6621 21.1741 37.1338 21.8994C35.6056 22.6247 33.7777 21.9744 33.0524 20.4462C32.3271 18.918 32.9774 17.0901 34.5062 16.3631Z" />
<path opacity="0.9" d="M85.045 81.7808C86.5743 81.0549 88.4011 81.7056 89.1271 83.2349C89.8525 84.763 89.2012 86.5915 87.6725 87.3158C86.1444 88.0413 84.3181 87.3917 83.5921 85.8624C82.8667 84.3343 83.5157 82.5068 85.045 81.7808Z" />
<path opacity="0.9" d="M76.4194 63.5404C77.9503 62.815 79.7749 63.464 80.5021 64.9927C81.2269 66.5226 80.5774 68.3489 79.0469 69.0754C77.5188 69.8008 75.6925 69.1513 74.9665 67.622C74.2411 66.0938 74.8912 64.2659 76.4194 63.5404Z" />
<path opacity="0.9" d="M67.6223 45.2997C69.1516 44.5737 70.9779 45.2233 71.705 46.752C72.4293 48.2807 71.7792 50.1087 70.2499 50.8347C68.7217 51.5601 66.8949 50.9094 66.1695 49.3813C65.4435 47.852 66.0948 46.0235 67.6223 45.2997Z" />
<path opacity="0.9" d="M59.0001 27.0576C60.5287 26.3333 62.355 26.9829 63.081 28.5122C63.8065 30.0404 63.1563 31.8683 61.6276 32.5926C60.0989 33.3198 58.272 32.6691 57.5466 31.1409C56.8206 29.6116 57.4708 27.7836 59.0001 27.0576Z" />
<path opacity="0.9" d="M50.3743 8.86044C51.9036 8.13445 53.7305 8.78515 54.4564 10.3144C55.1819 11.8426 54.5306 13.6711 53.0019 14.3954C51.4737 15.1209 49.6475 14.4713 48.9215 12.942C48.196 11.4139 48.845 9.58642 50.3743 8.86044Z" />
<path opacity="0.9" d="M100.914 74.235C102.444 73.5099 104.27 74.1591 104.996 75.6871C105.721 77.2156 105.071 79.0437 103.543 79.7695C102.015 80.4952 100.186 79.8442 99.4606 78.3162C98.7348 76.7882 99.3858 74.9596 100.914 74.235Z" />
<path opacity="0.9" d="M92.2894 56.0365C93.8187 55.3134 95.6444 55.962 96.3714 57.4908C97.095 59.0184 96.4464 60.847 94.917 61.5728C93.3888 62.2981 91.5609 61.6478 90.8356 60.1196C90.1103 58.5914 90.7612 56.7618 92.2894 56.0365Z" />
<path opacity="0.9" d="M83.4936 37.7952C85.0212 37.0714 86.8486 37.7205 87.5746 39.2497C88.3001 40.7779 87.6488 42.6064 86.1212 43.3302C84.5931 44.0556 82.7656 43.4066 82.0396 41.8773C81.3142 40.3492 81.9655 38.5206 83.4936 37.7952Z" />
<path opacity="0.9" d="M74.8669 19.5553C76.3979 18.8299 78.2225 19.4789 78.9502 21.0088C79.6745 22.5375 79.0249 24.3638 77.4945 25.0903C75.9675 25.8152 74.14 25.1662 73.414 23.6369C72.6881 22.1076 73.3388 20.2808 74.8669 19.5553Z" />
<path opacity="0.9" d="M66.2423 1.31459C67.7733 0.58921 69.5979 1.23816 70.325 2.76692C71.0493 4.29561 70.3992 6.12358 68.8699 6.84957C67.3429 7.57447 65.5149 6.92431 64.7895 5.39616C64.0635 3.86687 64.7148 2.03835 66.2423 1.31459Z" />
</svg>
