<svg width="461" height="380" viewBox="0 0 461 380" fill="none" xmlns="http://www.w3.org/2000/svg">
<path d="M0.406298 313.454C3.30391 333.328 21.7638 347.09 41.6375 344.193C43.6957 343.893 45.6828 343.418 47.5985 342.799C53.8179 341.641 123.538 318.017 154.418 355.156C169.607 372.662 193.104 382.319 217.741 378.728C239.412 375.569 257.323 362.843 267.828 345.454L291.131 311.584C302.04 295.022 317.766 282.205 336.187 274.858L390.262 253.292C393.885 252.078 397.405 250.667 400.819 249.082L400.949 249.031L400.947 249.023C441.194 230.277 466.18 186.785 459.446 140.595C451.225 84.1998 398.843 45.1483 342.449 53.3691C336.843 54.1862 331.413 55.4463 326.18 57.0961L270.891 69.7641C240.611 76.7014 208.834 68.7054 185.437 48.2708C179.16 42.7883 171.635 34.7456 170.601 33.1571C170.592 33.1448 170.551 33.1493 170.529 33.1437C151.714 10.0741 121.608 -2.82432 90.0086 1.78314C42.1673 8.75723 9.03791 53.1932 16.0131 101.034C16.1077 101.688 33.6381 197.005 33.6381 197.005C33.6626 197.143 33.686 197.282 33.7105 197.422C37.6745 220.208 33.1695 243.665 21.2473 263.487L5.94549 288.337C1.26679 295.497 -0.923955 304.325 0.406298 313.454Z" fill="url(#paint0_linear_2_14489)" fill-opacity="0.7"/>
<defs>
<linearGradient id="paint0_linear_2_14489" x1="460.539" y1="190.164" x2="0.0220947" y2="190.164" gradientUnits="userSpaceOnUse">
<stop stop-color="#02BE83"/>
<stop offset="1" stop-color="#B3F6DC"/>
</linearGradient>
</defs>
</svg>
