<svg width="488" height="398" viewBox="0 0 488 398" fill="none" xmlns="http://www.w3.org/2000/svg">
<path d="M0.162727 282.047C-1.72078 302.043 12.9632 319.779 32.9582 321.662C35.0287 321.858 37.0725 321.865 39.0796 321.717C45.3969 322.061 118.726 315.588 139.951 358.975C150.57 379.576 171.12 394.513 195.907 396.848C217.711 398.902 238.123 390.77 252.44 376.358L283.089 348.956C297.604 335.444 315.914 326.707 335.55 323.922L393.19 315.751C396.998 315.427 400.751 314.889 404.444 314.156L404.583 314.136L404.582 314.129C448.121 305.428 482.678 269.076 487.055 222.603C492.398 165.863 450.733 115.535 393.993 110.191C388.355 109.66 382.78 109.6 377.306 109.968L320.588 109.205C289.526 108.788 260.539 93.507 242.637 68.1198C237.834 61.3093 232.424 51.7159 231.794 49.9282C231.789 49.9148 231.747 49.9081 231.728 49.8981C218.9 23.0348 192.697 3.38601 160.903 0.391552C112.769 -4.14133 70.0739 31.2044 65.541 79.3373C65.4798 79.9941 59.9796 176.755 59.9796 176.755C59.9707 176.896 59.9618 177.036 59.9518 177.176C58.4167 200.256 48.4938 221.982 32.2246 238.423L11.4827 258.952C5.2444 264.804 1.02767 272.862 0.162727 282.047Z" fill="url(#paint0_linear_2_14485)" fill-opacity="0.8"/>
<defs>
<linearGradient id="paint0_linear_2_14485" x1="-15.2349" y1="79.7123" x2="764.106" y2="205.525" gradientUnits="userSpaceOnUse">
<stop stop-color="#8AA8F8"/>
<stop offset="1" stop-color="#315BFF"/>
</linearGradient>
</defs>
</svg>
