<svg width="161" height="148" viewBox="0 0 161 148" fill="none" xmlns="http://www.w3.org/2000/svg">
<path d="M106.313 116.575C106.438 114.3 107.561 112.834 109.84 112.512C111.934 112.216 114.049 114.09 113.997 116.202C113.94 118.499 112.648 119.99 110.36 120.107C108.069 120.221 106.747 118.83 106.313 116.575Z" fill="white"/>
<path d="M119.336 27.4041C121.649 27.5322 123.173 28.6393 123.367 30.9585C123.558 33.2702 122.29 34.7195 120.007 35.0743C117.832 35.4107 115.881 33.6902 115.836 31.4635C115.787 29.0872 117.183 27.8962 119.336 27.4041Z" fill="white"/>
<path d="M140.774 43.8595C140.851 46.2787 139.68 47.6962 137.442 48.1107C135.331 48.5018 133.25 46.7474 133.201 44.5648C133.149 42.2488 134.363 40.7153 136.66 40.5371C138.928 40.3628 140.343 41.6476 140.774 43.8595Z" fill="white"/>
<path d="M52.552 76.0258C52.563 74.0389 53.5917 72.458 55.9563 72.2007C58.2992 71.9436 59.8422 73.1602 60.1035 75.508C60.3675 77.8593 59.0899 79.3087 56.7862 79.6952C54.7335 80.039 52.8197 78.448 52.552 76.0258Z" fill="white"/>
<path d="M42.926 62.614C42.7905 64.8924 41.7125 66.4555 39.3383 66.609C36.9792 66.7602 35.5105 65.4301 35.338 63.0964C35.1654 60.7412 36.4722 59.2651 38.8279 59.1001C41.2011 58.9302 42.4914 60.3085 42.926 62.614Z" fill="white"/>
<path d="M127.141 125.526C129.4 125.576 130.982 126.528 131.284 128.892C131.588 131.245 130.362 132.691 128.124 133.16C126.006 133.605 123.89 131.917 123.772 129.731C123.646 127.392 124.92 126.067 127.141 125.526Z" fill="white"/>
<path d="M85.3704 33.1836C87.8505 33.3669 89.407 34.4987 89.505 36.8491C89.6028 39.1626 88.302 40.6655 85.9249 40.7806C83.5603 40.8923 82.1355 39.5821 81.9951 37.2246C81.8524 34.8178 83.3441 33.6514 85.3704 33.1836Z" fill="white"/>
<path d="M77.4513 119.401C79.6891 119.52 81.2862 120.477 81.5139 122.862C81.738 125.201 80.5723 126.642 78.244 126.985C75.9783 127.317 74.0195 125.75 73.9695 123.518C73.9175 121.194 75.2487 119.899 77.4513 119.401Z" fill="white"/>
<path d="M6.12892 65.9732C8.44802 66.0857 10.0526 67.063 10.2709 69.4679C10.4858 71.8387 9.28058 73.2935 6.90505 73.5496C4.47422 73.8126 3.05796 72.4494 2.78466 70.1915C2.49722 67.8205 3.9687 66.542 6.12892 65.9732Z" fill="white"/>
<path d="M139.371 81.2123C137.41 81.17 135.947 80.0942 135.684 77.7122C135.455 75.6396 137.108 73.6117 139.122 73.5877C141.44 73.5612 142.913 74.8103 143.256 77.0971C143.56 79.1141 141.838 80.9998 139.371 81.2123Z" fill="white"/>
<path d="M83.3221 0.140832C85.2342 0.140649 86.762 1.08533 87.0894 3.46628C87.4028 5.7464 85.8806 7.64489 83.6146 7.73094C81.2612 7.82035 79.8865 6.50865 79.5308 4.28084C79.2134 2.29104 80.9053 0.392346 83.3221 0.140832Z" fill="white"/>
<path d="M158.239 57.0598C158.419 59.1832 156.882 61.0377 154.807 61.2042C152.779 61.3655 150.806 59.7077 150.636 57.6979C150.468 55.6918 152.135 53.7297 154.162 53.5432C156.223 53.3549 158.06 54.9402 158.239 57.0598Z" fill="white"/>
<path d="M21.5552 45.9802C23.5576 45.966 24.9867 47.1862 25.3833 49.4318C25.742 51.4511 24.0462 53.4327 21.9351 53.5525C19.5876 53.6868 18.1209 52.5522 17.8348 50.1603C17.5715 47.9676 19.0255 46.2212 21.5552 45.9802Z" fill="white"/>
<path d="M92.6507 107.103C90.6798 106.963 89.088 105.965 88.9049 103.552C88.7214 101.158 90.0553 99.6754 92.3481 99.4655C94.699 99.2494 96.1059 100.697 96.4727 102.95C96.7894 104.901 94.9661 106.918 92.6507 107.103Z" fill="white"/>
<path d="M64.0849 109.872C64.2584 111.944 62.6732 113.764 60.5488 113.93C58.4306 114.096 56.569 112.537 56.4205 110.476C56.2745 108.445 57.9435 106.481 59.9492 106.321C61.9547 106.161 63.9164 107.845 64.0849 109.872Z" fill="white"/>
<path d="M128.16 96.721C128.206 99.3552 127.163 100.879 124.779 101.131C122.401 101.383 120.884 100.146 120.63 97.8175C120.376 95.4798 121.629 93.9589 123.981 93.6868C126.372 93.409 127.638 94.7881 128.16 96.721Z" fill="white"/>
<path d="M97.0179 17.3871C96.9865 15.1082 97.9915 13.5515 100.378 13.2865C102.776 13.0201 104.228 14.3019 104.486 16.6212C104.747 18.9542 103.553 20.534 101.194 20.7709C98.8752 21.001 97.433 19.7845 97.0179 17.3871Z" fill="white"/>
<path d="M85.7646 71.4475C85.8997 69.1106 87.0695 67.7187 89.4326 67.5332C91.5368 67.3694 93.4742 69.0611 93.4135 71.1056C93.3446 73.3926 92.1377 74.9155 89.7545 75.0207C87.3777 75.1244 86.1171 73.7461 85.7646 71.4475Z" fill="white"/>
<path d="M41.1709 92.1095C43.4712 92.2414 44.9582 93.3704 45.0661 95.756C45.1729 98.12 43.898 99.5505 41.5216 99.6921C39.1009 99.8345 37.7497 98.4355 37.5985 96.128C37.4441 93.7484 38.8454 92.4744 41.1709 92.1095Z" fill="white"/>
<path d="M52.9032 40.2537C55.2116 40.1872 56.7914 41.2096 57.0292 43.5807C57.2611 45.8875 56.1489 47.4034 53.7187 47.6718C51.306 47.937 49.8265 46.7495 49.5652 44.4306C49.3028 42.1131 50.5413 40.6802 52.9032 40.2537Z" fill="white"/>
<path d="M47.1796 11.137C47.2016 8.66767 48.4374 7.22897 50.7693 7.11055C53.1177 6.99245 54.5642 8.34193 54.6868 10.7027C54.8105 13.0812 53.4941 14.4865 51.1276 14.6196C48.7218 14.7537 47.4851 13.3693 47.1796 11.137Z" fill="white"/>
<path d="M67.8872 20.1722C70.2144 20.0332 72.1821 21.6718 72.1605 23.7194C72.1374 25.9885 71.0688 27.5894 68.6178 27.7111C66.2315 27.8304 64.8439 26.5732 64.6581 24.1971C64.4697 21.7539 65.8944 20.5714 67.8872 20.1722Z" fill="white"/>
<path d="M39.7399 30.6028C39.6439 32.8912 38.7075 34.4163 36.2388 34.6143C33.8029 34.8107 32.3944 33.563 32.1765 31.26C31.958 28.9214 33.2332 27.4341 35.5956 27.2263C37.9618 27.0182 39.2919 28.3134 39.7399 30.6028Z" fill="white"/>
<path d="M22.4934 116.191C22.6785 113.875 23.7532 112.375 26.1623 112.256C28.57 112.135 30.0171 113.511 30.1376 115.781C30.261 118.057 29.0031 119.543 26.5486 119.667C24.1004 119.791 22.9286 118.419 22.4934 116.191Z" fill="white"/>
<path d="M98.8039 136.69C98.7821 138.551 97.5965 139.955 95.2244 140.076C92.8131 140.198 91.5303 138.829 91.3427 136.481C91.1744 134.348 92.8229 132.431 94.8903 132.513C97.1374 132.602 98.6676 133.686 98.8039 136.69Z" fill="white"/>
<path d="M79.1484 90.2782C79.0901 92.3422 77.9541 93.8625 75.5882 93.9844C73.2414 94.1072 71.8466 92.7677 71.6274 90.4162C71.429 88.2987 73.0859 86.4624 75.1569 86.3497C77.2115 86.2398 79.0109 87.8911 79.1484 90.2782Z" fill="white"/>
<path d="M20.3072 83.1797C20.3014 80.6256 21.5743 79.2018 23.8752 79.0911C26.18 78.9827 27.6656 80.2679 27.7521 82.6821C27.8366 85.0482 26.6186 86.4748 24.225 86.6043C21.7985 86.7335 20.6227 85.3185 20.3072 83.1797Z" fill="white"/>
<path d="M70.8048 53.2774C72.8415 53.2709 74.33 54.3322 74.4885 56.7469C74.6461 59.1312 73.4163 60.4931 71.0276 60.7166C68.5378 60.9483 67.1899 59.5066 67.0094 57.2876C66.8277 55.0281 68.0504 53.5145 70.8048 53.2774Z" fill="white"/>
<path d="M14.7306 18.0618C14.8046 15.6424 16.0084 14.2469 18.3622 14.1127C20.7666 13.9771 22.1991 15.3995 22.3156 17.6579C22.4329 19.934 21.1425 21.4165 18.7133 21.5395C16.2676 21.6633 15.0939 20.2892 14.7306 18.0618Z" fill="white"/>
<path d="M103.079 84.6104C103.233 82.2894 104.352 80.8438 106.719 80.6173C108.812 80.4167 110.755 82.0711 110.749 84.1355C110.739 86.4411 109.557 87.9643 107.167 88.106C104.787 88.2444 103.52 86.8627 103.079 84.6104Z" fill="white"/>
<path d="M100.846 51.7794C100.662 49.1096 102.016 47.6735 104.244 47.5039C106.467 47.3361 108.072 48.5333 108.243 50.9879C108.412 53.3957 107.185 54.8042 104.834 55.0085C102.437 55.2191 101.145 53.9006 100.846 51.7794Z" fill="white"/>
<path d="M8.18796 99.2113C10.9521 98.9353 12.2982 100.237 12.7381 102.45C13.1438 104.498 11.5416 106.343 9.37186 106.559C6.97841 106.796 5.47418 105.69 5.20508 103.328C4.93449 100.972 6.1934 99.5917 8.18796 99.2113Z" fill="white"/>
<path d="M138.102 110.982C138.002 108.361 139.176 106.925 141.528 106.748C143.868 106.573 145.311 107.767 145.511 110.182C145.709 112.622 144.395 113.968 142.097 114.198C139.7 114.435 138.434 113.073 138.102 110.982Z" fill="white"/>
<path d="M118.199 64.7653C118.169 62.1646 119.472 60.6868 121.726 60.5453C123.983 60.4024 125.571 61.7034 125.689 64.0967C125.806 66.4304 124.563 67.9155 122.187 68.0819C119.774 68.2502 118.564 66.8264 118.199 64.7653Z" fill="white"/>
<path d="M62.3111 139.484C64.8412 139.562 66.271 140.702 66.3951 143.092C66.5197 145.488 65.2238 146.887 62.8733 147.003C60.5243 147.12 59.1508 145.868 58.9896 143.457C58.8239 140.97 60.2919 139.903 62.3111 139.484Z" fill="white"/>
<path d="M156.371 94.2524C154.61 94.1615 153.18 93.0276 152.963 90.6625C152.772 88.6018 154.493 86.5959 156.528 86.6595C158.431 86.7191 160.299 87.3656 160.116 89.7225C159.963 91.7038 159.999 94.1602 156.371 94.2524Z" fill="white"/>
<path d="M41.4411 130.373C41.5244 128.032 42.6453 126.575 45.0363 126.475C47.3995 126.377 48.7492 127.62 48.8945 130.025C49.0403 132.495 47.6797 133.759 45.3786 133.911C42.9841 134.071 41.7432 132.688 41.4411 130.373Z" fill="white"/>
<path d="M7.93502 36.8422C7.87281 38.9147 6.68513 40.5926 4.3811 40.4487C3.10882 40.3688 1.45504 39.2232 0.815487 38.0856C0.100779 36.8119 3.01594 32.9481 4.28713 32.9408C6.17988 32.9303 7.80596 34.5576 7.93502 36.8422Z" fill="white"/>
</svg>
