<svg width="36" height="36" viewBox="0 0 36 36" fill="none" xmlns="http://www.w3.org/2000/svg">
<path d="M31.5 24.0526V11.9476C31.5 10.8706 30.9255 9.87464 29.9925 9.33614L19.509 3.28364C18.576 2.74514 17.4255 2.74514 16.4925 3.28364L6.0075 9.33464C5.0745 9.87464 4.5 10.8691 4.5 11.9476V24.0526C4.5 25.1296 5.0745 26.1256 6.0075 26.6641L16.491 32.7166C17.424 33.2551 18.5745 33.2551 19.5075 32.7166L29.991 26.6641C30.9255 26.1256 31.5 25.1311 31.5 24.0526Z" stroke="#315BFF" stroke-width="2" stroke-linecap="round" stroke-linejoin="round"/>
<path d="M4.92001 25.5451L31.08 10.4551" stroke="#315BFF" stroke-width="2" stroke-linecap="round" stroke-linejoin="round"/>
<path d="M18 2.92505V33.075" stroke="#315BFF" stroke-width="2" stroke-linecap="round" stroke-linejoin="round"/>
<path d="M31.08 25.5451L4.92001 10.4551" stroke="#315BFF" stroke-width="2" stroke-linecap="round" stroke-linejoin="round"/>
</svg>
