<svg width="30" height="30" viewBox="0 0 30 30" fill="none" xmlns="http://www.w3.org/2000/svg">
<path d="M14.9999 1.5C7.5719 1.5 1.4939 7.578 1.4939 15.006V19.8855" stroke="#315BFF" stroke-width="2" stroke-linecap="round" stroke-linejoin="round"/>
<path d="M14.9999 1.5C22.4279 1.5 28.5059 7.578 28.5059 15.006V19.8855" stroke="#315BFF" stroke-width="2" stroke-linecap="round" stroke-linejoin="round"/>
<path d="M23.4914 28.4999H25.1624C27.0089 28.4999 28.5059 27.0029 28.5059 25.1564V18.4709H23.4914C22.5689 18.4709 21.8204 19.2194 21.8204 20.1419V26.8274C21.8204 27.7514 22.5674 28.4999 23.4914 28.4999Z" stroke="#315BFF" stroke-width="2" stroke-linecap="round" stroke-linejoin="round"/>
<path d="M6.5084 28.4999H4.8374C2.9909 28.4999 1.4939 27.0029 1.4939 25.1564V18.4709H6.5084C7.4309 18.4709 8.1794 19.2194 8.1794 20.1419V26.8274C8.1794 27.7514 7.4324 28.4999 6.5084 28.4999Z" stroke="#315BFF" stroke-width="2" stroke-linecap="round" stroke-linejoin="round"/>
</svg>
